<svg xmlns="http://www.w3.org/2000/svg" width="16" height="16" viewBox="0 0 16 16"><g transform="translate(0 1)"><rect width="16" height="16" transform="translate(0 -1)" fill="none"/><path d="M15.687,45.305,8.156,42.5a.445.445,0,0,0-.312,0L.313,45.305a.506.506,0,0,0,0,.934L7.843,49.07a.445.445,0,0,0,.314,0l7.531-2.831a.506.506,0,0,0,0-.934Z" transform="translate(0 -42.468)" fill="#434343"/><path d="M432.339,202.057v-4.323l-.991.352v3.97a.995.995,0,0,0,0,1.726v2.435a.5.5,0,0,0,.991,0v-2.435a1,1,0,0,0,0-1.726Z" transform="translate(-417.529 -193.214)" fill="#434343"/><path d="M109.96,224.089a1.236,1.236,0,0,1-.452-.086l-4.064-1.591v2.181c0,.534.505.985,1.5,1.341a9.674,9.674,0,0,0,6.029,0c1-.356,1.5-.807,1.5-1.341v-2.181L110.413,224A1.236,1.236,0,0,1,109.96,224.089Z" transform="translate(-101.96 -216.892)" fill="#434343"/></g></svg>