<svg xmlns="http://www.w3.org/2000/svg" width="16" height="16" viewBox="0 0 16 16"><g transform="translate(1 1)"><rect width="16" height="16" transform="translate(-1 -1)" fill="none"/><g transform="translate(3.159 3.598)"><path d="M120.777,137h-.169l-.315,1.576h.8Z" transform="translate(-120.293 -137)" fill="#434343"/></g><g transform="translate(10.016 6.75)"><path d="M381.374,257a4.121,4.121,0,0,0,.647,1.142,4.16,4.16,0,0,0,.673-1.142Z" transform="translate(-381.374 -257)" fill="#434343"/></g><g transform="translate(6.373 2.39)"><path d="M248.555,91h-4.892l1.02,8.186a1.223,1.223,0,0,1-.292.9l-1.728,1.974h5.892a1.183,1.183,0,0,0,1.182-1.182V92.208A1.206,1.206,0,0,0,248.555,91Zm0,4.36h-.105a5,5,0,0,1-.949,1.726c.289.265.6.482.907.725a.394.394,0,0,1-.492.615c-.334-.264-.648-.485-.962-.773-.314.288-.6.509-.936.773a.394.394,0,1,1-.492-.615c.308-.243.591-.46.88-.725a4.972,4.972,0,0,1-.923-1.726h-.105a.394.394,0,1,1,0-.788h1.182v-.394a.394.394,0,0,1,.788,0v.394h1.208a.394.394,0,0,1,0,.788Z" transform="translate(-242.663 -91)" fill="#434343"/></g><path d="M6.413,1.035A1.183,1.183,0,0,0,5.24,0H1.182A1.183,1.183,0,0,0,0,1.182V9.9a1.183,1.183,0,0,0,1.182,1.182H7.395c.115-.131.211-.214.215-.385C7.611,10.655,6.418,1.078,6.413,1.035ZM4.831,7.53a.394.394,0,0,1-.464-.309L4.116,5.962H3L2.75,7.221a.394.394,0,1,1-.773-.155l.788-3.94a.394.394,0,0,1,.386-.317h.814a.394.394,0,0,1,.386.317l.788,3.94A.394.394,0,0,1,4.831,7.53Z" fill="#434343"/><g transform="translate(4.603 11.871)"><path d="M175.261,452l.068.541a1.191,1.191,0,0,0,.681.915L177.332,452Z" transform="translate(-175.261 -452)" fill="#434343"/></g></g></svg>